<svg width="100%" height="100%" viewBox="0 0 657 653" fill="none" xmlns="http://www.w3.org/2000/svg">
<path d="M136.756 520.062C82.8745 465.545 43.037 398.766 20.6479 325.452C-1.74116 252.138 -5.99429 174.501 8.23946 99.1868C10.7663 84.166 17.3337 70.1165 27.2332 58.543C37.1331 46.9646 49.9926 38.2977 64.4348 33.4633L157.586 2.18834L157.592 2.19444C168.054 -1.35165 179.503 -0.576487 189.397 4.34898C199.291 9.27445 206.811 17.9476 210.289 28.4334L247.625 141.299C250.048 148.666 250.378 156.558 248.584 164.102C246.783 171.646 242.919 178.537 237.432 184.018L165.326 262.93C165.326 262.93 137.232 343.057 225.489 431.336C313.739 519.605 393.879 491.505 393.879 491.505L472.798 419.386C478.279 413.893 485.176 410.036 492.72 408.235C500.264 406.435 508.156 406.771 515.523 409.194L628.382 446.54C638.874 450.02 647.542 457.539 652.467 467.433C657.392 477.326 658.167 488.776 654.621 499.244L623.353 592.383C618.519 606.824 609.852 619.684 598.279 629.578C586.701 639.478 572.657 646.045 557.635 648.572C482.318 662.811 404.674 658.557 331.37 636.169C258.06 613.788 191.276 573.944 136.76 520.062L136.756 520.062Z"/>
</svg>
