<svg width="100%" height="100%" viewBox="0 0 30 26" fill="none" xmlns="http://www.w3.org/2000/svg" data-v-4178a8c4="">
    <path d="M28.0479 0.867449L1.77291 10.7618C0.333779 11.1741 0.377389 12.5845 1.44583 12.9316L8.03093 14.9712L10.5603 22.6524C10.8656 23.4986 11.1272 23.8024 11.6505 23.8241C12.1957 23.8241 12.4137 23.6288 12.9807 23.1298C13.6566 22.5005 14.6596 21.5241 16.2732 19.9618L23.12 24.9958C24.3846 25.6902 25.3004 25.3213 25.6057 23.8241L29.9013 2.6901C30.3374 0.867455 29.2471 0.324995 28.0479 0.867449ZM9.05576 14.4939L24.014 5.16369C24.7553 4.66464 24.9734 5.22879 24.6463 5.59766L12.2175 16.7071L11.5851 22.2618L9.05576 14.4939Z"></path>
</svg>