<svg width="100%" height="100%" viewBox="0 0 800 800" fill="none" xmlns="http://www.w3.org/2000/svg">
<path d="M645.969 167.781H154.031C116.031 167.781 85.1219 198.689 85.1219 236.684V563.309C85.1219 601.303 116.036 632.219 154.031 632.219H645.969C683.969 632.219 714.883 601.305 714.883 563.309V236.684C714.883 198.691 683.969 167.781 645.969 167.781ZM154.031 183.522H645.969C657.419 183.522 668.003 187.196 676.694 193.379L439.991 415.426C428.852 426.571 414.862 432.777 400.592 432.918H400.092C385.523 432.918 371.735 426.821 360.017 415.113L124.392 192.567C132.863 186.854 143.062 183.515 154.025 183.515L154.031 183.522ZM100.864 563.319V236.694C100.864 224.023 105.332 212.389 112.76 203.247L317.041 396.184L112.697 596.684C105.312 587.553 100.863 575.945 100.863 563.317L100.864 563.319ZM645.973 616.48H154.036C143.031 616.48 132.789 613.117 124.3 607.361L328.503 407.002L349.047 426.405C363.421 440.779 381.523 448.664 400.116 448.664C400.323 448.664 400.531 448.664 400.744 448.658C419.158 448.481 437.041 440.632 450.946 426.735L472.741 406.294L676.835 606.513C668.125 612.757 657.486 616.474 645.975 616.474L645.973 616.48ZM699.141 563.319C699.141 575.452 695.009 586.609 688.142 595.57L484.236 395.523L688.064 204.32C694.985 213.299 699.148 224.505 699.148 236.688L699.141 563.319Z"/>
</svg>
